<svg fill="#44bbf2" xmlns="http://www.w3.org/2000/svg" viewBox="0 0 64 64">
  <defs>
    <style>
      .cls-1 {
        fill: none;
      }

      .cls-2 {
        fill: #44bbf2;
      }
    </style>
  </defs>
  <g id="NFJ_Logo_-_Japanese" transform="translate(-83 -93)">
    <rect id="Logo_Background_Box" class="cls-1" width="64" height="64" transform="translate(83 93)"/>
    <g id="NF" transform="translate(86.499 128.603)">
      <path id="N" class="cls-2" d="M71.824,673.917c0-.677-.005-1.3-.016-1.867s-.021-1.061-.032-1.483-.021-.752-.032-1-.016-.389-.016-.437a.9.9,0,0,0-.507-.165c-.192-.005-.379-.011-.565-.011a3.027,3.027,0,0,0-.939.187,4.668,4.668,0,0,0-1.061.523,3.332,3.332,0,0,0-.869.837,1.849,1.849,0,0,0-.357,1.109,1.411,1.411,0,0,0,.1.571.893.893,0,0,0,.224.32.594.594,0,0,0,.256.133.8.8,0,0,0,.187.027.96.96,0,0,0,.459-.1,2.416,2.416,0,0,0,.325-.2c.1-.069.187-.139.272-.2a.488.488,0,0,1,.3-.1.7.7,0,0,1,.283.064.807.807,0,0,1,.277.2,1.133,1.133,0,0,1,.219.352,1.4,1.4,0,0,1,.091.528,1.671,1.671,0,0,1-.171.773,1.788,1.788,0,0,1-.448.544,1.931,1.931,0,0,1-.624.325,2.47,2.47,0,0,1-.7.107,2.434,2.434,0,0,1-.965-.187,2.162,2.162,0,0,1-.731-.507,2.185,2.185,0,0,1-.459-.757,2.649,2.649,0,0,1-.155-.928,4.057,4.057,0,0,1,.485-2.027,4.431,4.431,0,0,1,1.3-1.445,5.611,5.611,0,0,1,1.867-.864,9.356,9.356,0,0,1,3.861-.149,3.993,3.993,0,0,1,1.072.357,1.964,1.964,0,0,1,.645.528,4.261,4.261,0,0,1,.4.64c.453.923.9,1.835,1.323,2.726s.843,1.766,1.243,2.614.784,1.664,1.163,2.453.741,1.531,1.1,2.23v-5.051c0-.619.016-1.221.048-1.813a11.479,11.479,0,0,1,.213-1.675,6.062,6.062,0,0,1,.485-1.445,3.716,3.716,0,0,1,.864-1.141,3.808,3.808,0,0,1,1.344-.747A6.2,6.2,0,0,1,85.5,667.5a5.857,5.857,0,0,1,1.051.085,3.337,3.337,0,0,1,.832.24,1.646,1.646,0,0,1,.555.384.757.757,0,0,1,.2.507,1.559,1.559,0,0,1-.048.373,1.3,1.3,0,0,1-.149.352.9.9,0,0,1-.251.261.61.61,0,0,1-.352.107c-.112,0-.213-.08-.309-.235a5.828,5.828,0,0,0-.347-.517,2.138,2.138,0,0,0-.549-.517,1.618,1.618,0,0,0-.923-.235,3.172,3.172,0,0,0-1.5.32,2.527,2.527,0,0,0-.965.9,4.3,4.3,0,0,0-.544,1.413,11.673,11.673,0,0,0-.219,1.851c-.016.469-.027.928-.037,1.371s-.021.891-.021,1.344-.005.928-.005,1.413v1.568c0,.789.005,1.5.011,2.123s.016,1.141.032,1.541c.336.576.667,1.088.992,1.547a9.073,9.073,0,0,0,.965,1.163,4.109,4.109,0,0,0,.955.731,2.049,2.049,0,0,0,.971.256,1.162,1.162,0,0,0,.3-.043,1.965,1.965,0,0,0,.256-.1,1.467,1.467,0,0,0,.245-.144l.357.437a4.138,4.138,0,0,1-.443.267,5.154,5.154,0,0,1-.693.3,6.047,6.047,0,0,1-.933.245,5.975,5.975,0,0,1-1.152.1,3.679,3.679,0,0,1-1.739-.443,6.866,6.866,0,0,1-1.605-1.211,11.845,11.845,0,0,1-1.472-1.8q-.7-1.032-1.355-2.219c-.437-.789-.853-1.611-1.259-2.47s-.789-1.7-1.168-2.544-.736-1.648-1.083-2.437-.683-1.5-1.013-2.16c0,.432.005.88.011,1.339s.011.928.011,1.4v3.462c0,.619-.016,1.221-.043,1.808a10.805,10.805,0,0,1-.213,1.669,6.441,6.441,0,0,1-.485,1.451,3.6,3.6,0,0,1-.864,1.147,3.833,3.833,0,0,1-1.349.747,6.072,6.072,0,0,1-1.931.267,5.863,5.863,0,0,1-1.051-.085,3.342,3.342,0,0,1-.832-.24,1.612,1.612,0,0,1-.549-.379.77.77,0,0,1-.2-.512,1.559,1.559,0,0,1,.048-.373,1.3,1.3,0,0,1,.149-.352.96.96,0,0,1,.245-.261.582.582,0,0,1,.347-.107.274.274,0,0,1,.208.112,2.922,2.922,0,0,1,.2.277c.069.112.155.235.245.363a1.939,1.939,0,0,0,.336.363,1.639,1.639,0,0,0,.475.277,1.809,1.809,0,0,0,.672.112,3.171,3.171,0,0,0,1.5-.32,2.5,2.5,0,0,0,.965-.907,4.224,4.224,0,0,0,.539-1.413,12.2,12.2,0,0,0,.213-1.856c.021-.469.037-.923.043-1.365s.016-.885.021-1.339.011-.928.011-1.419Z" transform="translate(-65.6 -667.5)"/>
      <path id="F" class="cls-2" d="M790.744,685.014h-4.411v6.224a1.565,1.565,0,0,1-.453,1.253,2.654,2.654,0,0,1-2.768,0,1.581,1.581,0,0,1-.448-1.253v-6.224H780.92v-.981h1.744V677a7.289,7.289,0,0,0-.821.128,7.74,7.74,0,0,0-.949.267,9.312,9.312,0,0,0-.955.405,4.061,4.061,0,0,0-.837.549,2.833,2.833,0,0,0-.6.7,1.578,1.578,0,0,0-.229.832,1.41,1.41,0,0,0,.1.571.887.887,0,0,0,.219.32.549.549,0,0,0,.251.133.8.8,0,0,0,.187.027.96.96,0,0,0,.459-.1,2.4,2.4,0,0,0,.325-.2c.1-.069.187-.139.272-.2a.488.488,0,0,1,.3-.1.7.7,0,0,1,.283.064.808.808,0,0,1,.277.2,1.133,1.133,0,0,1,.219.352,1.4,1.4,0,0,1,.091.528,1.6,1.6,0,0,1-.619,1.323,1.921,1.921,0,0,1-.624.32,2.47,2.47,0,0,1-.7.107,2.434,2.434,0,0,1-.965-.187,2.163,2.163,0,0,1-.731-.507,2.213,2.213,0,0,1-.459-.752,2.658,2.658,0,0,1-.155-.933,3.5,3.5,0,0,1,.72-2.224,5.374,5.374,0,0,1,1.973-1.5,10.923,10.923,0,0,1,2.917-.853,22.133,22.133,0,0,1,3.563-.267c.512,0,1.051.005,1.611.016s1.088.027,1.579.048.933.048,1.312.08a6.477,6.477,0,0,1,.805.1,1.955,1.955,0,0,1,.357.123.566.566,0,0,1,.2.155.527.527,0,0,1,.091.208,1.409,1.409,0,0,1,.021.272,1.589,1.589,0,0,1-.032.3,1.2,1.2,0,0,1-.1.3.963.963,0,0,1-.165.24.33.33,0,0,1-.245.1.351.351,0,0,1-.2-.08c-.069-.053-.171-.117-.3-.2a3.689,3.689,0,0,0-.523-.256,5.33,5.33,0,0,0-.88-.256,12.109,12.109,0,0,0-1.376-.2q-.824-.08-1.984-.08v7.163h4.411v.981Z" transform="translate(-739.058 -675.547)"/>
    </g>
    <path id="J" class="cls-2" d="M389.993,591.1v9.137h0v15.489a11.134,11.134,0,0,1-.3,2.683,6.26,6.26,0,0,1-.928,2.112,4.234,4.234,0,0,1-1.589,1.371,5.048,5.048,0,0,1-2.3.485,2.909,2.909,0,0,1-1.131-.192,2.718,2.718,0,0,1-.773-.48,2.689,2.689,0,0,1-.523-.619c-.133-.219-.251-.427-.357-.619a4.243,4.243,0,0,0-.3-.48.424.424,0,0,0-.341-.192.972.972,0,0,0-.565.176,1.729,1.729,0,0,0-.427.432,1.981,1.981,0,0,0-.261.581,2.391,2.391,0,0,0-.085.635,1.057,1.057,0,0,0,.373.773,3.361,3.361,0,0,0,1,.619,6.99,6.99,0,0,0,1.44.411,9.8,9.8,0,0,0,1.7.149,9.442,9.442,0,0,0,4.581-1.12,7.716,7.716,0,0,0,2.955-2.747,9.606,9.606,0,0,0,1.493-5.52V591.1Z" transform="translate(-276.828 -466.572)"/>
    <g id="Umbrella_Spreder" transform="translate(83 98.595)">
      <path id="Path_88" class="cls-2" d="M574.325,104.9l-1.125,4.832h.72Z" transform="translate(-542.629 -104.9)"/>
      <path id="Path_89" class="cls-2" d="M483.4,225.176h3.8l1.669-20.076h-.8Z" transform="translate(-457.619 -199.756)"/>
      <path id="Path_90" class="cls-2" d="M321.9,225.176h3.749l8.1-20.076h-.789Z" transform="translate(-304.732 -199.756)"/>
      <path id="Path_91" class="cls-2" d="M537.161,104.9l-2.661,4.832h.709Z" transform="translate(-505.993 -104.9)"/>
      <path id="Path_92" class="cls-2" d="M241.4,225.176h3.7L256.419,205.1h-.779Z" transform="translate(-228.525 -199.756)"/>
      <path id="Path_93" class="cls-2" d="M518.529,104.9l-3.429,4.832h.7Z" transform="translate(-487.628 -104.9)"/>
      <path id="Path_94" class="cls-2" d="M402.6,225.176h3.781l4.88-20.076h-.795Z" transform="translate(-381.128 -199.756)"/>
      <path id="Path_95" class="cls-2" d="M555.693,104.9l-1.893,4.832h.72Z" transform="translate(-524.264 -104.9)"/>
      <path id="Path_96" class="cls-2" d="M462.923,104.9l-5.723,4.832h.672Z" transform="translate(-432.816 -104.9)"/>
      <path id="Path_97" class="cls-2" d="M0,225.176H3.568l-.016-.016L24.523,205.1h-.741Z" transform="translate(0 -199.756)"/>
      <path id="Path_98" class="cls-2" d="M80.4,225.176h3.595L101.76,205.1H101Z" transform="translate(-76.112 -199.756)"/>
      <path id="Path_99" class="cls-2" d="M481.46,104.9l-4.96,4.832h.683Z" transform="translate(-451.087 -104.9)"/>
      <path id="Path_100" class="cls-2" d="M499.992,104.9l-4.192,4.832h.693Z" transform="translate(-469.357 -104.9)"/>
      <path id="Path_101" class="cls-2" d="M160.9,225.176h3.653L179.087,205.1h-.768Z" transform="translate(-152.319 -199.756)"/>
      <path id="Path_102" class="cls-2" d="M633.9,104.9l5.072,4.832h.672Z" transform="translate(-600.092 -104.9)"/>
      <path id="Path_103" class="cls-2" d="M763.587,225.176,739.741,205.1H739l21.035,20.06-.016.016Z" transform="translate(-699.587 -199.756)"/>
      <path id="Path_104" class="cls-2" d="M624,104.9l3.515,4.832h.7Z" transform="translate(-590.72 -104.9)"/>
      <path id="Path_105" class="cls-2" d="M711.5,225.176h3.653L697.668,205.1H696.9Z" transform="translate(-659.732 -199.756)"/>
      <path id="Path_106" class="cls-2" d="M619.1,104.9l2.736,4.832h.7Z" transform="translate(-586.081 -104.9)"/>
      <path id="Path_107" class="cls-2" d="M687.181,225.176h3.7l-14.3-20.076H675.8Z" transform="translate(-639.757 -199.756)"/>
      <path id="Path_108" class="cls-2" d="M629,104.9l4.293,4.832h.683Z" transform="translate(-595.453 -104.9)"/>
      <path id="Path_109" class="cls-2" d="M735.729,225.176h3.595L718.657,205.1H717.9Z" transform="translate(-679.612 -199.756)"/>
      <path id="Path_110" class="cls-2" d="M638.744,225.176h3.781L634.595,205.1H633.8Z" transform="translate(-599.997 -199.756)"/>
      <path id="Path_111" class="cls-2" d="M609.1,104.9l1.195,4.832h.715Z" transform="translate(-576.615 -104.9)"/>
      <path id="Path_112" class="cls-2" d="M662.96,225.176h3.749L655.589,205.1H654.8Z" transform="translate(-619.877 -199.756)"/>
      <path id="Path_113" class="cls-2" d="M614.1,104.9l1.963,4.832h.715Z" transform="translate(-581.348 -104.9)"/>
      <path id="Path_114" class="cls-2" d="M614.533,225.176h3.8L613.6,205.1h-.8Z" transform="translate(-580.117 -199.756)"/>
      <path id="Path_115" class="cls-2" d="M604.2,104.9l.416,4.832h.725Z" transform="translate(-571.976 -104.9)"/>
      <path id="Path_116" class="cls-2" d="M564.3,225.176h3.808L566.572,205.1h-.8Z" transform="translate(-534.204 -199.756)"/>
      <path id="Path_117" class="cls-2" d="M592.952,104.9l-.352,4.832h.725Z" transform="translate(-560.995 -104.9)"/>
      <path id="Path_118" class="cls-2" d="M565.465,0h1.776l.96,5.083h-3.7Z" transform="translate(-534.393 -5.595)"/>
    </g>
  </g>
</svg>
