<?xml version="1.0" encoding="UTF-8" standalone="no"?>
<svg xmlns="http://www.w3.org/2000/svg" viewBox="0 0 72 72">
 <defs>
  <style>.cls-1 {
        fill: none;
      }
      .cls-2 {
        fill: #fff;
      }</style>
 </defs>
 <g id="NFJ_Logo_White_-_Japanese" transform="translate(-664 -5237)" data-name="NFJ Logo (White) - Japanese">
  <rect id="SNS_Box" data-name="SNS Box" transform="translate(664 5237)" height="72" width="72" class="cls-1"/>
  <g id="NF" transform="translate(667.94 5277.1)">
   <path id="N" d="m72.6 674.72c0-0.762-0.006-1.464-0.018-2.1s-0.024-1.194-0.036-1.668-0.024-0.846-0.036-1.122-0.018-0.438-0.018-0.492a1.01 1.01 0 0 0 -0.57 -0.186c-0.216-0.006-0.426-0.012-0.636-0.012a3.406 3.406 0 0 0 -1.056 0.21 5.253 5.253 0 0 0 -1.194 0.588 3.749 3.749 0 0 0 -0.978 0.942 2.08 2.08 0 0 0 -0.4 1.248 1.587 1.587 0 0 0 0.108 0.642 1 1 0 0 0 0.252 0.36 0.668 0.668 0 0 0 0.288 0.15 0.9 0.9 0 0 0 0.21 0.03 1.081 1.081 0 0 0 0.516 -0.108 2.722 2.722 0 0 0 0.366 -0.228c0.108-0.078 0.21-0.156 0.306-0.228a0.548 0.548 0 0 1 0.336 -0.108 0.786 0.786 0 0 1 0.318 0.072 0.907 0.907 0 0 1 0.312 0.222 1.275 1.275 0 0 1 0.246 0.4 1.574 1.574 0 0 1 0.1 0.594 1.88 1.88 0 0 1 -0.192 0.87 2.012 2.012 0 0 1 -0.5 0.612 2.173 2.173 0 0 1 -0.7 0.366 2.779 2.779 0 0 1 -0.786 0.12 2.739 2.739 0 0 1 -1.086 -0.21 2.433 2.433 0 0 1 -0.822 -0.57 2.459 2.459 0 0 1 -0.516 -0.852 2.981 2.981 0 0 1 -0.174 -1.044 4.564 4.564 0 0 1 0.546 -2.28 4.985 4.985 0 0 1 1.458 -1.626 6.314 6.314 0 0 1 2.1 -0.972 10.526 10.526 0 0 1 4.344 -0.168 4.493 4.493 0 0 1 1.206 0.4 2.21 2.21 0 0 1 0.726 0.594 4.793 4.793 0 0 1 0.45 0.72c0.51 1.038 1.008 2.064 1.488 3.066s0.948 1.986 1.4 2.94 0.882 1.872 1.308 2.76 0.834 1.722 1.236 2.508v-5.682c0-0.7 0.018-1.374 0.054-2.04a12.913 12.913 0 0 1 0.24 -1.884 6.82 6.82 0 0 1 0.546 -1.626 4.18 4.18 0 0 1 0.972 -1.284 4.284 4.284 0 0 1 1.512 -0.84 6.979 6.979 0 0 1 2.172 -0.3 6.591 6.591 0 0 1 1.182 0.1 3.755 3.755 0 0 1 0.936 0.27 1.852 1.852 0 0 1 0.624 0.432 0.851 0.851 0 0 1 0.228 0.57 1.754 1.754 0 0 1 -0.054 0.42 1.458 1.458 0 0 1 -0.168 0.4 1.015 1.015 0 0 1 -0.282 0.294 0.686 0.686 0 0 1 -0.4 0.12c-0.126 0-0.24-0.09-0.348-0.264a6.553 6.553 0 0 0 -0.39 -0.582 2.4 2.4 0 0 0 -0.618 -0.582 1.821 1.821 0 0 0 -1.038 -0.264 3.569 3.569 0 0 0 -1.692 0.36 2.843 2.843 0 0 0 -1.086 1.014 4.833 4.833 0 0 0 -0.612 1.59 13.133 13.133 0 0 0 -0.246 2.082c-0.018 0.528-0.03 1.044-0.042 1.542s-0.024 1-0.024 1.512-0.006 1.044-0.006 1.59v1.764c0 0.888 0.006 1.686 0.012 2.388s0.018 1.284 0.036 1.734c0.378 0.648 0.75 1.224 1.116 1.74a10.206 10.206 0 0 0 1.086 1.308 4.623 4.623 0 0 0 1.074 0.822 2.3 2.3 0 0 0 1.092 0.288 1.309 1.309 0 0 0 0.342 -0.048 2.211 2.211 0 0 0 0.288 -0.114 1.645 1.645 0 0 0 0.276 -0.162l0.4 0.492a4.649 4.649 0 0 1 -0.5 0.3 5.8 5.8 0 0 1 -0.78 0.342 6.807 6.807 0 0 1 -1.05 0.276 6.722 6.722 0 0 1 -1.3 0.114 4.138 4.138 0 0 1 -1.956 -0.5 7.725 7.725 0 0 1 -1.806 -1.362 13.328 13.328 0 0 1 -1.656 -2.028q-0.792-1.161-1.524-2.5c-0.492-0.888-0.96-1.812-1.416-2.778s-0.888-1.914-1.314-2.862-0.828-1.854-1.218-2.742-0.768-1.692-1.14-2.43c0 0.486 0.006 0.99 0.012 1.506s0.012 1.044 0.012 1.572v3.894c0 0.7-0.018 1.374-0.048 2.034a12.155 12.155 0 0 1 -0.24 1.878 7.247 7.247 0 0 1 -0.546 1.632 4.044 4.044 0 0 1 -0.972 1.29 4.311 4.311 0 0 1 -1.518 0.84 6.83 6.83 0 0 1 -2.172 0.3 6.6 6.6 0 0 1 -1.182 -0.1 3.758 3.758 0 0 1 -0.936 -0.27 1.813 1.813 0 0 1 -0.618 -0.426 0.866 0.866 0 0 1 -0.222 -0.576 1.753 1.753 0 0 1 0.054 -0.42 1.459 1.459 0 0 1 0.168 -0.4 1.08 1.08 0 0 1 0.276 -0.294 0.654 0.654 0 0 1 0.39 -0.12 0.309 0.309 0 0 1 0.234 0.126 3.291 3.291 0 0 1 0.228 0.312c0.078 0.126 0.174 0.264 0.276 0.408a2.183 2.183 0 0 0 0.378 0.408 1.844 1.844 0 0 0 0.534 0.312 2.035 2.035 0 0 0 0.756 0.126 3.568 3.568 0 0 0 1.692 -0.36 2.813 2.813 0 0 0 1.086 -1.02 4.752 4.752 0 0 0 0.606 -1.59 13.718 13.718 0 0 0 0.24 -2.088c0.024-0.528 0.042-1.038 0.048-1.536s0.018-1 0.024-1.506 0.012-1.044 0.012-1.6z" transform="translate(-65.6 -667.5)" class="cls-2"/>
   <path id="F" d="m792.46 686.14h-4.96v7a1.76 1.76 0 0 1 -0.51 1.41 2.986 2.986 0 0 1 -3.114 0 1.779 1.779 0 0 1 -0.5 -1.41v-7h-1.97v-1.1h1.962v-7.909a8.2 8.2 0 0 0 -0.924 0.144 8.694 8.694 0 0 0 -1.068 0.3 10.468 10.468 0 0 0 -1.074 0.456 4.567 4.567 0 0 0 -0.942 0.618 3.184 3.184 0 0 0 -0.672 0.786 1.775 1.775 0 0 0 -0.258 0.936 1.587 1.587 0 0 0 0.108 0.642 1 1 0 0 0 0.246 0.36 0.618 0.618 0 0 0 0.282 0.15 0.9 0.9 0 0 0 0.21 0.03 1.08 1.08 0 0 0 0.516 -0.108 2.7 2.7 0 0 0 0.366 -0.228c0.108-0.078 0.21-0.156 0.306-0.228a0.548 0.548 0 0 1 0.336 -0.108 0.785 0.785 0 0 1 0.318 0.072 0.908 0.908 0 0 1 0.312 0.222 1.272 1.272 0 0 1 0.246 0.4 1.573 1.573 0 0 1 0.1 0.594 1.922 1.922 0 0 1 -0.192 0.876 1.942 1.942 0 0 1 -0.5 0.612 2.163 2.163 0 0 1 -0.7 0.36 2.779 2.779 0 0 1 -0.786 0.12 2.738 2.738 0 0 1 -1.086 -0.21 2.432 2.432 0 0 1 -0.822 -0.57 2.489 2.489 0 0 1 -0.516 -0.846 2.991 2.991 0 0 1 -0.174 -1.05 3.937 3.937 0 0 1 0.81 -2.5 6.046 6.046 0 0 1 2.22 -1.692 12.288 12.288 0 0 1 3.282 -0.96 24.9 24.9 0 0 1 4.008 -0.3c0.576 0 1.182 0.006 1.812 0.018s1.224 0.03 1.776 0.054 1.05 0.054 1.476 0.09a7.283 7.283 0 0 1 0.906 0.114 2.2 2.2 0 0 1 0.4 0.138 0.636 0.636 0 0 1 0.228 0.174 0.592 0.592 0 0 1 0.1 0.234 1.579 1.579 0 0 1 0.024 0.306 1.79 1.79 0 0 1 -0.036 0.336 1.354 1.354 0 0 1 -0.114 0.342 1.082 1.082 0 0 1 -0.186 0.27 0.371 0.371 0 0 1 -0.276 0.114 0.4 0.4 0 0 1 -0.222 -0.09c-0.078-0.06-0.192-0.132-0.342-0.228a4.153 4.153 0 0 0 -0.588 -0.288 5.989 5.989 0 0 0 -0.99 -0.288 13.631 13.631 0 0 0 -1.548 -0.228q-0.927-0.09-2.232-0.09v8.059h4.962v1.1z" transform="translate(-734.32 -675.49)" class="cls-2"/>
  </g>
  <path id="J" d="m391.23 591.1v27.699a12.526 12.526 0 0 1 -0.342 3.018 7.042 7.042 0 0 1 -1.044 2.376 4.764 4.764 0 0 1 -1.788 1.542 5.679 5.679 0 0 1 -2.592 0.546 3.271 3.271 0 0 1 -1.272 -0.216 3.056 3.056 0 0 1 -0.87 -0.54 3.024 3.024 0 0 1 -0.588 -0.7c-0.15-0.246-0.282-0.48-0.4-0.7a4.771 4.771 0 0 0 -0.342 -0.54 0.477 0.477 0 0 0 -0.384 -0.216 1.094 1.094 0 0 0 -0.636 0.2 1.945 1.945 0 0 0 -0.48 0.486 2.228 2.228 0 0 0 -0.294 0.654 2.689 2.689 0 0 0 -0.1 0.714 1.189 1.189 0 0 0 0.42 0.87 3.78 3.78 0 0 0 1.122 0.7 7.863 7.863 0 0 0 1.62 0.462 11.029 11.029 0 0 0 1.914 0.168 10.623 10.623 0 0 0 5.154 -1.26 8.681 8.681 0 0 0 3.324 -3.09 10.807 10.807 0 0 0 1.68 -6.211v-25.97z" transform="translate(306.71 4681.4)" class="cls-2"/>
  <g id="Umbrella_Spreder" transform="translate(664 5237)" data-name="Umbrella Spreder">
   <path id="Path_88" d="m574.47 104.9l-1.266 5.436h0.81z" class="cls-2" transform="translate(-538.81 -98.605)" data-name="Path 88"/>
   <path id="Path_89" d="m483.4 227.69h4.278l1.878-22.586h-0.9z" class="cls-2" transform="translate(-454.4 -192.79)" data-name="Path 89"/>
   <path id="Path_90" d="m321.9 227.69h4.218l9.108-22.586h-0.888z" class="cls-2" transform="translate(-302.59 -192.79)" data-name="Path 90"/>
   <path id="Path_91" d="m537.49 104.9l-2.994 5.436h0.8z" class="cls-2" transform="translate(-502.43 -98.605)" data-name="Path 91"/>
   <path id="Path_92" d="m241.4 227.69h4.164l12.74-22.59h-0.876z" class="cls-2" transform="translate(-226.92 -192.79)" data-name="Path 92"/>
   <path id="Path_93" d="m518.96 104.9l-3.858 5.436h0.792z" class="cls-2" transform="translate(-484.19 -98.605)" data-name="Path 93"/>
   <path id="Path_94" d="m402.6 227.69h4.254l5.49-22.586h-0.894z" class="cls-2" transform="translate(-378.44 -192.79)" data-name="Path 94"/>
   <path id="Path_95" d="m555.93 104.9l-2.13 5.436h0.81z" class="cls-2" transform="translate(-520.57 -98.605)" data-name="Path 95"/>
   <path id="Path_96" d="m463.64 104.9l-6.438 5.436h0.756z" class="cls-2" transform="translate(-429.77 -98.605)" data-name="Path 96"/>
   <path id="Path_97" d="m0 227.69h4.014l-0.014-0.02 23.588-22.57h-0.834z" class="cls-2" transform="translate(0 -192.79)" data-name="Path 97"/>
   <path id="Path_98" d="m80.4 227.69h4.044l19.986-22.59h-0.852z" class="cls-2" transform="translate(-75.576 -192.79)" data-name="Path 98"/>
   <path id="Path_99" d="m482.08 104.9l-5.58 5.436h0.768z" class="cls-2" transform="translate(-447.91 -98.605)" data-name="Path 99"/>
   <path id="Path_100" d="m500.52 104.9l-4.716 5.436h0.78z" class="cls-2" transform="translate(-466.05 -98.605)" data-name="Path 100"/>
   <path id="Path_101" d="m160.9 227.69h4.11l16.35-22.59h-0.86z" class="cls-2" transform="translate(-151.25 -192.79)" data-name="Path 101"/>
   <path id="Path_102" d="m633.9 104.9l5.706 5.436h0.756z" class="cls-2" transform="translate(-595.87 -98.605)" data-name="Path 102"/>
   <path id="Path_103" d="m766.66 227.69-26.83-22.59h-0.83l23.664 22.568-0.018 0.018z" class="cls-2" transform="translate(-694.66 -192.79)" data-name="Path 103"/>
   <path id="Path_104" d="m624 104.9l3.954 5.436h0.786z" class="cls-2" transform="translate(-586.56 -98.605)" data-name="Path 104"/>
   <path id="Path_105" d="m713.32 227.69h4.11l-19.67-22.59h-0.86z" class="cls-2" transform="translate(-655.09 -192.79)" data-name="Path 105"/>
   <path id="Path_106" d="m619.1 104.9l3.078 5.436h0.792z" class="cls-2" transform="translate(-581.95 -98.605)" data-name="Path 106"/>
   <path id="Path_107" d="m688.6 227.69h4.164l-16.08-22.59h-0.88z" class="cls-2" transform="translate(-635.25 -192.79)" data-name="Path 107"/>
   <path id="Path_108" d="m629 104.9l4.83 5.436h0.768z" class="cls-2" transform="translate(-591.26 -98.605)" data-name="Path 108"/>
   <path id="Path_109" d="m737.96 227.69h4.04l-23.25-22.59h-0.85z" class="cls-2" transform="translate(-674.83 -192.79)" data-name="Path 109"/>
   <path id="Path_110" d="m639.36 227.69h4.254l-8.92-22.59h-0.89z" class="cls-2" transform="translate(-595.77 -192.79)" data-name="Path 110"/>
   <path id="Path_111" d="m609.1 104.9l1.344 5.436h0.8z" class="cls-2" transform="translate(-572.55 -98.605)" data-name="Path 111"/>
   <path id="Path_112" d="m663.98 227.69h4.22l-12.51-22.59h-0.89z" class="cls-2" transform="translate(-615.51 -192.79)" data-name="Path 112"/>
   <path id="Path_113" d="m614.1 104.9l2.208 5.436h0.8z" class="cls-2" transform="translate(-577.25 -98.605)" data-name="Path 113"/>
   <path id="Path_114" d="m614.75 227.69h4.278l-5.33-22.59h-0.9z" class="cls-2" transform="translate(-576.03 -192.79)" data-name="Path 114"/>
   <path id="Path_115" d="m604.2 104.9l0.468 5.436h0.816z" class="cls-2" transform="translate(-567.95 -98.605)" data-name="Path 115"/>
   <path id="Path_116" d="m564.3 227.69h4.284l-1.72-22.59h-0.9z" class="cls-2" transform="translate(-530.44 -192.79)" data-name="Path 116"/>
   <path id="Path_117" d="m593 104.9l-0.4 5.436h0.816z" class="cls-2" transform="translate(-557.04 -98.605)" data-name="Path 117"/>
   <path id="Path_118" d="m565.59 0h2l1.08 5.718h-4.17z" class="cls-2" transform="translate(-530.63)" data-name="Path 118"/>
  </g>
 </g>
</svg>
